<svg xmlns="http://www.w3.org/2000/svg" xmlns:xlink="http://www.w3.org/1999/xlink" width="128" zoomAndPan="magnify" viewBox="0 0 96 95.999999" height="128" preserveAspectRatio="xMidYMid meet" version="1.0"><defs><g/><clipPath id="ca327b51b7"><path d="M 4.195312 3.050781 L 91.945312 3.050781 L 91.945312 90.800781 L 4.195312 90.800781 Z M 4.195312 3.050781 " clip-rule="nonzero"/></clipPath></defs><g clip-path="url(#ca327b51b7)"><path fill="#13b81a" d="M 48 3.050781 C 23.808594 3.050781 4.195312 22.664062 4.195312 46.855469 C 4.195312 71.046875 23.808594 90.660156 48 90.660156 C 72.1875 90.660156 91.804688 71.046875 91.804688 46.855469 C 91.804688 22.664062 72.1875 3.050781 48 3.050781 Z M 72.652344 40.09375 L 47.019531 65.722656 C 45.789062 66.957031 44.117188 67.652344 42.367188 67.652344 C 40.644531 67.652344 38.976562 66.957031 37.742188 65.722656 L 24.9375 52.921875 C 22.367188 50.351562 22.367188 46.210938 24.9375 43.640625 C 27.507812 41.097656 31.621094 41.097656 34.195312 43.640625 L 42.367188 51.84375 L 63.371094 30.839844 C 65.941406 28.269531 70.082031 28.269531 72.652344 30.839844 C 75.195312 33.382812 75.195312 37.523438 72.652344 40.09375 Z M 72.652344 40.09375 " fill-opacity="1" fill-rule="nonzero"/></g><path fill="#ffffff" d="M 72.652344 40.09375 L 47.019531 65.722656 C 45.789062 66.957031 44.117188 67.652344 42.367188 67.652344 C 40.644531 67.652344 38.976562 66.957031 37.742188 65.722656 L 24.9375 52.921875 C 22.367188 50.351562 22.367188 46.210938 24.9375 43.640625 C 27.507812 41.097656 31.621094 41.097656 34.195312 43.640625 L 42.367188 51.84375 L 63.371094 30.839844 C 65.941406 28.269531 70.082031 28.269531 72.652344 30.839844 C 75.195312 33.382812 75.195312 37.523438 72.652344 40.09375 Z M 72.652344 40.09375 " fill-opacity="1" fill-rule="nonzero"/><g fill="#ffffff" fill-opacity="1"><g transform="translate(45.011717, 56.080686)"><g><path d="M 2.0625 0 C 1.988281 0 1.9375 -0.015625 1.90625 -0.046875 C 1.875 -0.0859375 1.859375 -0.144531 1.859375 -0.21875 C 1.691406 -0.0390625 1.457031 0.046875 1.15625 0.046875 C 0.863281 0.046875 0.628906 -0.0351562 0.453125 -0.203125 C 0.285156 -0.367188 0.203125 -0.628906 0.203125 -0.984375 C 0.203125 -1.335938 0.285156 -1.59375 0.453125 -1.75 C 0.628906 -1.90625 0.863281 -1.984375 1.15625 -1.984375 C 1.320312 -1.984375 1.457031 -1.960938 1.5625 -1.921875 C 1.675781 -1.890625 1.773438 -1.847656 1.859375 -1.796875 L 1.859375 -2.609375 C 1.859375 -2.640625 1.847656 -2.660156 1.828125 -2.671875 C 1.816406 -2.679688 1.789062 -2.691406 1.75 -2.703125 L 1.609375 -2.734375 L 1.609375 -2.796875 L 2.578125 -2.921875 L 2.65625 -2.921875 L 2.65625 -0.1875 C 2.65625 -0.15625 2.660156 -0.132812 2.671875 -0.125 C 2.679688 -0.113281 2.707031 -0.109375 2.75 -0.109375 L 2.890625 -0.078125 L 2.890625 0 Z M 1.40625 -0.125 C 1.5625 -0.125 1.710938 -0.195312 1.859375 -0.34375 L 1.859375 -1.671875 C 1.722656 -1.773438 1.578125 -1.828125 1.421875 -1.828125 C 1.273438 -1.828125 1.171875 -1.757812 1.109375 -1.625 C 1.054688 -1.5 1.03125 -1.285156 1.03125 -0.984375 C 1.03125 -0.773438 1.039062 -0.609375 1.0625 -0.484375 C 1.082031 -0.359375 1.117188 -0.265625 1.171875 -0.203125 C 1.222656 -0.148438 1.300781 -0.125 1.40625 -0.125 Z M 1.40625 -0.125 "/></g></g></g><g fill="#ffffff" fill-opacity="1"><g transform="translate(47.992834, 56.080686)"><g><path d="M 2.0625 0 C 1.988281 0 1.9375 -0.015625 1.90625 -0.046875 C 1.875 -0.0859375 1.859375 -0.144531 1.859375 -0.21875 C 1.691406 -0.0390625 1.457031 0.046875 1.15625 0.046875 C 0.863281 0.046875 0.628906 -0.0351562 0.453125 -0.203125 C 0.285156 -0.367188 0.203125 -0.628906 0.203125 -0.984375 C 0.203125 -1.335938 0.285156 -1.59375 0.453125 -1.75 C 0.628906 -1.90625 0.863281 -1.984375 1.15625 -1.984375 C 1.320312 -1.984375 1.457031 -1.960938 1.5625 -1.921875 C 1.675781 -1.890625 1.773438 -1.847656 1.859375 -1.796875 L 1.859375 -2.609375 C 1.859375 -2.640625 1.847656 -2.660156 1.828125 -2.671875 C 1.816406 -2.679688 1.789062 -2.691406 1.75 -2.703125 L 1.609375 -2.734375 L 1.609375 -2.796875 L 2.578125 -2.921875 L 2.65625 -2.921875 L 2.65625 -0.1875 C 2.65625 -0.15625 2.660156 -0.132812 2.671875 -0.125 C 2.679688 -0.113281 2.707031 -0.109375 2.75 -0.109375 L 2.890625 -0.078125 L 2.890625 0 Z M 1.40625 -0.125 C 1.5625 -0.125 1.710938 -0.195312 1.859375 -0.34375 L 1.859375 -1.671875 C 1.722656 -1.773438 1.578125 -1.828125 1.421875 -1.828125 C 1.273438 -1.828125 1.171875 -1.757812 1.109375 -1.625 C 1.054688 -1.5 1.03125 -1.285156 1.03125 -0.984375 C 1.03125 -0.773438 1.039062 -0.609375 1.0625 -0.484375 C 1.082031 -0.359375 1.117188 -0.265625 1.171875 -0.203125 C 1.222656 -0.148438 1.300781 -0.125 1.40625 -0.125 Z M 1.40625 -0.125 "/></g></g></g></svg>